<svg xmlns="http://www.w3.org/2000/svg" width="35" height="35" viewBox="0 0 35 35">
  <g id="Group_757" data-name="Group 757" transform="translate(-62 -88)">
    <rect id="Rectangle_210" data-name="Rectangle 210" width="35" height="35" rx="17.5" transform="translate(62 88)" fill="#191919"/>
    <g id="Group_2318" data-name="Group 2318" transform="translate(64 95.5)">
      <path id="Path_1195" data-name="Path 1195" d="M737.876,426.066a8.543,8.543,0,0,0-10.468-5.844h0a8.57,8.57,0,0,0-2.726,1.247h-8.039a.848.848,0,1,0,0,1.7h6.219a8.338,8.338,0,0,0-1.107,1.826h-2.98a.848.848,0,1,0,0,1.7h2.445a8.058,8.058,0,0,0-.158,1.827h-6.209a.848.848,0,1,0,0,1.7h6.436c.016.067.025.135.043.2h0c1.443,5.271,7.514,6.382,8.348,6.792a7.059,7.059,0,0,1,2.228,2.316.787.787,0,0,0,1.053.319.76.76,0,0,0,.415-.7,6.873,6.873,0,0,1,.745-3.1C734.632,435.272,739.319,431.336,737.876,426.066Zm-7.673,4.357h0a2.316,2.316,0,0,1-2.813-1.631,2.26,2.26,0,0,1,1.666-2.755,2.318,2.318,0,0,1,2.807,1.606A2.271,2.271,0,0,1,730.2,430.423Z" transform="translate(-713.984 -419.924)" fill="#fff"/>
    </g>
  </g>
</svg>
