<svg xmlns="http://www.w3.org/2000/svg" width="33" height="33" viewBox="0 0 33 33">
  <g id="Group_9012" data-name="Group 9012" transform="translate(-22858 -4624)">
    <circle id="Ellipse_108" data-name="Ellipse 108" cx="16.5" cy="16.5" r="16.5" transform="translate(22858 4624)" fill="#191919"/>
    <path id="pin" d="M15.519,2.788A6.883,6.883,0,1,0,6.465,13.157a16.742,16.742,0,0,1,3.959,4.789.575.575,0,0,0,1.011,0l.047-.088a16.922,16.922,0,0,1,3.952-4.736,6.877,6.877,0,0,0,.085-10.332Zm-4.589,8A2.868,2.868,0,1,1,13.8,7.921,2.868,2.868,0,0,1,10.93,10.789Z" transform="translate(22863.539 4630.833)" fill="#d1e84f"/>
  </g>
</svg>
