<svg xmlns="http://www.w3.org/2000/svg" width="41" height="41" viewBox="0 0 41 41">
  <g id="Group_660" data-name="Group 660" transform="translate(-1835 -590)">
    <g id="Rectangle_30" data-name="Rectangle 30" transform="translate(1835 590)" fill="none" stroke="#191919" stroke-width="1">
      <rect width="41" height="41" rx="20.5" stroke="none"/>
      <rect x="0.5" y="0.5" width="40" height="40" rx="20" fill="none"/>
    </g>
    <g id="surface1" transform="translate(1845 601)">
      <path id="Path_29" data-name="Path 29" d="M6.429,2A5.405,5.405,0,0,0,1.074,6.706,3.19,3.19,0,0,0,1,7.4c0,3.087,2.37,5.872,4.633,7.941a32.067,32.067,0,0,0,4.517,3.44L10.5,19l.35-.216a32.276,32.276,0,0,0,4.522-3.44C17.63,13.275,20,10.489,20,7.4a3.415,3.415,0,0,0-.069-.686A5.411,5.411,0,0,0,14.571,2,5.281,5.281,0,0,0,10.5,4.079,5.281,5.281,0,0,0,6.429,2Zm0,1.351A4.044,4.044,0,0,1,9.917,5.345l.583.981.583-.981A4.048,4.048,0,0,1,18.59,6.907l.011.053a2.131,2.131,0,0,1,.042.443c0,2.364-2.041,4.981-4.193,6.949A26.154,26.154,0,0,1,10.5,17.364a26.355,26.355,0,0,1-3.955-3.013C4.4,12.384,2.357,9.767,2.357,7.4A2.059,2.059,0,0,1,2.4,6.96l.011-.032V6.9A4.041,4.041,0,0,1,6.429,3.351Z" transform="translate(0)" fill="#191919"/>
    </g>
  </g>
</svg>
