<svg xmlns="http://www.w3.org/2000/svg" width="20" height="17.5" viewBox="0 0 20 17.5">
  <path id="Path_29" data-name="Path 29" d="M6.714,2A5.648,5.648,0,0,0,1.078,6.845,3.214,3.214,0,0,0,1,7.562c0,3.177,2.494,6.045,4.877,8.174a33.714,33.714,0,0,0,4.754,3.541L11,19.5l.368-.223a33.936,33.936,0,0,0,4.76-3.541c2.377-2.129,4.872-5,4.872-8.174a3.441,3.441,0,0,0-.073-.706A5.58,5.58,0,0,0,11,4.14,5.6,5.6,0,0,0,6.714,2Zm0,1.39a4.276,4.276,0,0,1,3.672,2.053L11,6.454l.614-1.01A4.276,4.276,0,0,1,15.286,3.39a4.218,4.218,0,0,1,4.23,3.661l.011.054a2.147,2.147,0,0,1,.045.456c0,2.433-2.148,5.127-4.414,7.153A27.5,27.5,0,0,1,11,17.816a27.708,27.708,0,0,1-4.163-3.1C4.577,12.689,2.429,10,2.429,7.562a2.074,2.074,0,0,1,.045-.456l.011-.033V7.04A4.222,4.222,0,0,1,6.714,3.39Z" transform="translate(-1 -2)"/>
</svg>
