<svg xmlns="http://www.w3.org/2000/svg" width="20" height="17.5" viewBox="0 0 20 17.5">
  <g id="Group_648" data-name="Group 648" transform="translate(-1847 -604)">
    <g id="surface1" transform="translate(1847 604)">
      <path id="Path_29" data-name="Path 29" d="M6.714,2A5.648,5.648,0,0,0,1.078,6.845,3.214,3.214,0,0,0,1,7.562c0,3.177,2.494,6.045,4.877,8.174a33.714,33.714,0,0,0,4.754,3.541L11,19.5l.368-.223a33.936,33.936,0,0,0,4.76-3.541c2.377-2.129,4.872-5,4.872-8.174a3.441,3.441,0,0,0-.073-.706A5.58,5.58,0,0,0,11,4.14,5.6,5.6,0,0,0,6.714,2Z" transform="translate(-1 -2)"/>
    </g>
  </g>
</svg>
