<svg id="ios-app-store-badges-fr" xmlns="http://www.w3.org/2000/svg" width="135" height="40" viewBox="0 0 135 40">
  <g id="Group_9012" data-name="Group 9012">
    <path id="Path_1521" data-name="Path 1521" d="M134,35.3a3.8,3.8,0,0,1-3.8,3.8H4.7A3.8,3.8,0,0,1,.9,35.3V4.7A3.8,3.8,0,0,1,4.7.9H130.2A3.8,3.8,0,0,1,134,4.7Z"/>
  </g>
  <path id="Path_1522" data-name="Path 1522" d="M30.2,19.8A5.868,5.868,0,0,1,33,14.9a5.873,5.873,0,0,0-4.7-2.5c-2-.2-3.9,1.2-4.9,1.2s-2.6-1.2-4.2-1.1A6.2,6.2,0,0,0,14,15.7c-2.3,3.9-.6,9.7,1.6,12.9,1.1,1.5,2.4,3.3,4,3.2s2.2-1,4.2-1,2.5,1,4.2,1c1.8,0,2.9-1.6,3.9-3.1a11.461,11.461,0,0,0,1.8-3.6c-.2-.2-3.5-1.5-3.5-5.3ZM27,10.3a5.492,5.492,0,0,0,1.3-4.1,6.579,6.579,0,0,0-3.8,1.9A5.293,5.293,0,0,0,23.2,12,4.413,4.413,0,0,0,27,10.3ZM45.2,31.5H43.3V18.7h1.9Zm5-12.4a19.137,19.137,0,0,1-1.8,4.5l-1.2.1a21.805,21.805,0,0,0,1.1-4.4Zm9.6,12.4H57.7l-1.1-3.6H52.7l-1.1,3.6h-2l3.9-12.1h2.4C55.8,19.4,59.8,31.5,59.8,31.5Zm-3.6-5.1-1-3.2c-.1-.3-.3-1.1-.6-2.3h0c-.1.5-.3,1.3-.6,2.3l-1,3.2Zm13.6.6a4.8,4.8,0,0,1-1.2,3.5,3.343,3.343,0,0,1-2.7,1.1,2.791,2.791,0,0,1-2.5-1.2h0V35H61.5V25.6c0-.9,0-1.9-.1-2.9h1.7l.1,1.4h0a3.238,3.238,0,0,1,2.9-1.6,3.367,3.367,0,0,1,2.6,1.2A4.718,4.718,0,0,1,69.8,27Zm-2,.1a3.281,3.281,0,0,0-.6-2.1,1.965,1.965,0,0,0-1.7-.9,1.656,1.656,0,0,0-1.3.5,3.166,3.166,0,0,0-.8,1.2,1.268,1.268,0,0,0-.1.6v1.5a2.271,2.271,0,0,0,.6,1.6,2.035,2.035,0,0,0,1.5.6,2,2,0,0,0,1.7-.8A3.069,3.069,0,0,0,67.8,27.1ZM79.9,27a4.8,4.8,0,0,1-1.2,3.5A3.343,3.343,0,0,1,76,31.6a2.791,2.791,0,0,1-2.5-1.2h0V35H71.6V25.6c0-.9,0-1.9-.1-2.9h1.7l.1,1.4h.1a3.4,3.4,0,0,1,3-1.6A3.367,3.367,0,0,1,79,23.7a5.816,5.816,0,0,1,.9,3.3Zm-2,.1a3.281,3.281,0,0,0-.6-2.1,1.965,1.965,0,0,0-1.7-.9,1.656,1.656,0,0,0-1.3.5,3.166,3.166,0,0,0-.8,1.2,1.268,1.268,0,0,0-.1.6v1.5a2.271,2.271,0,0,0,.6,1.6,2.035,2.035,0,0,0,1.5.6,2,2,0,0,0,1.7-.8,3.069,3.069,0,0,0,.7-2.2Zm13.2,1A3.25,3.25,0,0,1,90,30.6a4.859,4.859,0,0,1-3.3,1.1,6.056,6.056,0,0,1-3.2-.8l.4-1.6a5.376,5.376,0,0,0,2.8.8,2.86,2.86,0,0,0,1.7-.5,1.612,1.612,0,0,0,.6-1.3,1.656,1.656,0,0,0-.5-1.2,5.162,5.162,0,0,0-1.7-.9c-2.1-.8-3.2-2-3.2-3.5a3.408,3.408,0,0,1,1.1-2.5,4.913,4.913,0,0,1,3-1,6.088,6.088,0,0,1,2.8.6L90,21.4a4.383,4.383,0,0,0-2.3-.6,2.544,2.544,0,0,0-1.6.5,1.606,1.606,0,0,0-.5,1.1,1.425,1.425,0,0,0,.6,1.2,4.884,4.884,0,0,0,1.8.9A5.747,5.747,0,0,1,90.3,26a2.52,2.52,0,0,1,.8,2.1Zm6.4-3.9H95.4v4.3c0,1.1.4,1.6,1.2,1.6a2.769,2.769,0,0,0,.9-.1l.1,1.5a6.052,6.052,0,0,1-1.5.2,2.139,2.139,0,0,1-1.8-.7,3.605,3.605,0,0,1-.7-2.4V24.2H92.3V22.7h1.3V21.1l1.9-.6v2.2h2.2l-.2,1.5Zm9.7,2.9a4.62,4.62,0,0,1-1.2,3.3,4.08,4.08,0,0,1-3.2,1.3,3.871,3.871,0,0,1-3.1-1.3,4.542,4.542,0,0,1-1.2-3.2,4.459,4.459,0,0,1,1.2-3.3,3.944,3.944,0,0,1,3.2-1.3,3.871,3.871,0,0,1,3.1,1.3,4.378,4.378,0,0,1,1.2,3.2Zm-2,0a4.648,4.648,0,0,0-.5-2.1,1.9,1.9,0,0,0-1.8-1,2.1,2.1,0,0,0-1.8,1,4.66,4.66,0,0,0,0,4.2,1.9,1.9,0,0,0,1.8,1,1.958,1.958,0,0,0,1.7-1.1A3.173,3.173,0,0,0,105.2,27.1Zm8.3-2.6c-.2,0-.4-.1-.6-.1a1.943,1.943,0,0,0-1.6.8,2.86,2.86,0,0,0-.5,1.7v4.6h-1.9v-6a22.624,22.624,0,0,0-.1-2.7h1.7l.1,1.7h.1a2.805,2.805,0,0,1,1-1.4,2.389,2.389,0,0,1,1.4-.5h.5l-.1,1.9Zm8.7,2.2a2.483,2.483,0,0,1-.1.9h-5.8a2.629,2.629,0,0,0,.8,2,2.883,2.883,0,0,0,1.9.6,6.051,6.051,0,0,0,2.4-.4l.3,1.4a6.547,6.547,0,0,1-2.9.5,4.378,4.378,0,0,1-3.2-1.2,4.316,4.316,0,0,1-1.1-3.2,4.718,4.718,0,0,1,1.1-3.3,3.95,3.95,0,0,1,3.1-1.4,3.555,3.555,0,0,1,2.9,1.4A5.4,5.4,0,0,1,122.2,26.7Zm-1.8-.5a2.41,2.41,0,0,0-.4-1.5,1.7,1.7,0,0,0-1.6-.8,1.819,1.819,0,0,0-1.6.8,3.386,3.386,0,0,0-.6,1.5ZM47.8,7.8H46v5.6H45V7.8H43.1V6.9h4.8v.9ZM53,10.9v.5H49.9a1.433,1.433,0,0,0,.5,1.1,1.689,1.689,0,0,0,1,.3,5.067,5.067,0,0,0,1.3-.2l.2.7a4.146,4.146,0,0,1-1.6.3,2.352,2.352,0,0,1-1.7-.6,2.352,2.352,0,0,1-.6-1.7,2.792,2.792,0,0,1,.6-1.8,2.136,2.136,0,0,1,1.7-.8,1.645,1.645,0,0,1,1.5.8c0,.3.2.8.2,1.4Zm-1-.3a1.884,1.884,0,0,0-.2-.8,1,1,0,0,0-1.6,0,1.135,1.135,0,0,0-.3.8Zm.4-3.9L51.2,8.1h-.7l.8-1.4Zm3.1,6.7h-1V6.6h1Zm5.8-2.5v.5H58.1a1.433,1.433,0,0,0,.5,1.1,1.689,1.689,0,0,0,1,.3,5.067,5.067,0,0,0,1.3-.2l.2.7a4.146,4.146,0,0,1-1.6.3,2.352,2.352,0,0,1-1.7-.6,2.352,2.352,0,0,1-.6-1.7,2.792,2.792,0,0,1,.6-1.8,2.136,2.136,0,0,1,1.7-.8,1.645,1.645,0,0,1,1.5.8,4.2,4.2,0,0,1,.3,1.4Zm-1-.3a1.884,1.884,0,0,0-.2-.8,1,1,0,0,0-1.6,0,1.135,1.135,0,0,0-.3.8Zm.4-3.9L59.5,8.1h-.7l.8-1.4Zm5.5,2.2-.2.8a2.92,2.92,0,0,0-.9-.2A1.173,1.173,0,0,0,64,10a1.594,1.594,0,0,0-.4,1.2,1.594,1.594,0,0,0,.4,1.2,1.5,1.5,0,0,0,1.1.4,2.92,2.92,0,0,0,.9-.2l.1.8a4.438,4.438,0,0,1-1.3.2,2.352,2.352,0,0,1-1.7-.6,2.445,2.445,0,0,1-.6-1.8,2.41,2.41,0,0,1,.7-1.8,2.489,2.489,0,0,1,1.9-.7,1.389,1.389,0,0,1,1.1.2Zm5.5,4.5h-1V10.7c0-.8-.3-1.3-.9-1.3a.963.963,0,0,0-1,.7v3.2h-1V6.6h1V9.4h0a1.6,1.6,0,0,1,1.4-.8,1.5,1.5,0,0,1,1.1.4,2.544,2.544,0,0,1,.5,1.6l-.1,2.8Zm5.4,0h-.9l-.1-.5h0a1.678,1.678,0,0,1-1.4.6,1.378,1.378,0,0,1-1.5-1.3,1.357,1.357,0,0,1,.7-1.3,3.966,3.966,0,0,1,2-.4v-.1c0-.6-.3-.9-1-.9a1.594,1.594,0,0,0-1.2.4L73.6,9a2.726,2.726,0,0,1,1.6-.4,1.693,1.693,0,0,1,1.9,1.9v1.7A2.292,2.292,0,0,0,77.1,13.4ZM76,11.8v-.7c-1.2,0-1.7.3-1.7.9a1.421,1.421,0,0,0,.2.6.764.764,0,0,0,.5.2,1.421,1.421,0,0,0,.6-.2A.918.918,0,0,0,76,12v-.2Zm5.3-2.2H81a.909.909,0,0,0-.8.4,1.4,1.4,0,0,0-.3.9v2.5H78.8V8.7h.9l.1.9h0a1.275,1.275,0,0,1,.5-.7,1.135,1.135,0,0,1,.8-.3h.3l-.1,1Zm5.5-.9v4a2.541,2.541,0,0,1-.7,2.1,2.445,2.445,0,0,1-1.8.6,2.537,2.537,0,0,1-1.6-.4l.2-.8a2.836,2.836,0,0,0,1.3.4c.9,0,1.4-.5,1.4-1.5v-.5h0a1.513,1.513,0,0,1-1.4.7,1.816,1.816,0,0,1-1.4-.6,2.271,2.271,0,0,1-.6-1.6,2.445,2.445,0,0,1,.6-1.8,1.974,1.974,0,0,1,1.4-.6,1.339,1.339,0,0,1,1.4.8h0V8.9l1.2-.2Zm-1.1,2.7v-.8a1.135,1.135,0,0,0-.3-.8,1.234,1.234,0,0,0-.8-.4.975.975,0,0,0-.9.4,2.133,2.133,0,0,0-.3,1.2,2.016,2.016,0,0,0,.3,1.1.975.975,0,0,0,.9.4,1.421,1.421,0,0,0,.6-.2.918.918,0,0,0,.4-.6C85.7,11.7,85.7,11.6,85.7,11.4Zm6.8-.5v.5H89.3a1.433,1.433,0,0,0,.5,1.1,1.689,1.689,0,0,0,1,.3,5.067,5.067,0,0,0,1.3-.2l.2.7a3.808,3.808,0,0,1-1.6.3A2.352,2.352,0,0,1,89,13a2.352,2.352,0,0,1-.6-1.7A2.792,2.792,0,0,1,89,9.5a2,2,0,0,1,3.2,0,2.649,2.649,0,0,1,.3,1.4Zm-1-.3a1.884,1.884,0,0,0-.2-.8,1,1,0,0,0-1.6,0,1.136,1.136,0,0,0-.3.8Zm5-1h-.3c-.4,0-.7.1-.8.4a1.4,1.4,0,0,0-.3.9v2.5H94V8.7h.9v.9h0a1.275,1.275,0,0,1,.5-.7,1.135,1.135,0,0,1,.8-.3h.3S96.5,9.6,96.5,9.6Zm8.4,3.8H104l-.1-.8h0a1.551,1.551,0,0,1-1.5.9,1.513,1.513,0,0,1-1.4-.7,2.352,2.352,0,0,1-.6-1.7,2.883,2.883,0,0,1,.6-1.9,2.127,2.127,0,0,1,1.5-.7,1.375,1.375,0,0,1,1.3.6V6.6h1.1v5.6a4.819,4.819,0,0,0,0,1.2Zm-1.1-1.9V10.4c-.1-.2-.2-.5-.4-.6a.908.908,0,0,0-.7-.3.874.874,0,0,0-.9.5,2.133,2.133,0,0,0-.3,1.2,1.8,1.8,0,0,0,.3,1.1,1.05,1.05,0,0,0,.9.5.909.909,0,0,0,.8-.4,1.613,1.613,0,0,0,.3-.9Zm6.4,1.9h-.9l-.1-.5h0a1.678,1.678,0,0,1-1.4.6,1.378,1.378,0,0,1-1.5-1.3,1.357,1.357,0,0,1,.7-1.3,3.966,3.966,0,0,1,2-.4v-.1c0-.6-.3-.9-1-.9a1.594,1.594,0,0,0-1.2.4l-.1-.9a2.726,2.726,0,0,1,1.6-.4c1.2,0,1.8.6,1.8,1.9v1.7a6.822,6.822,0,0,1,.1,1.2Zm-1-1.6v-.7c-1.2,0-1.7.3-1.7.9a1.421,1.421,0,0,0,.2.6.764.764,0,0,0,.5.2,1.421,1.421,0,0,0,.6-.2.918.918,0,0,0,.4-.6c-.1,0,0-.1,0-.2Zm6.9,1.6h-1V10.7q0-1.2-.9-1.2a1.032,1.032,0,0,0-1.1,1.1v2.8h-1V8.6h.9v.7h0a1.7,1.7,0,0,1,.6-.6,1.613,1.613,0,0,1,.9-.3,1.5,1.5,0,0,1,1.1.4,2.111,2.111,0,0,1,.6,1.6l-.1,3Zm4.7-1.3a1.606,1.606,0,0,1-.5,1.1,1.844,1.844,0,0,1-1.3.4,3.194,3.194,0,0,1-1.4-.3l.2-.8a2.663,2.663,0,0,0,1.2.3c.5,0,.8-.2.8-.6a.52.52,0,0,0-.2-.4,1.628,1.628,0,0,0-.6-.3c-.8-.3-1.3-.8-1.3-1.4a1.231,1.231,0,0,1,.5-1,1.594,1.594,0,0,1,1.2-.4,2.133,2.133,0,0,1,1.2.3l-.2.8a1.689,1.689,0,0,0-1-.3.749.749,0,0,0-.5.1.52.52,0,0,0-.2.4.758.758,0,0,0,.2.4,1.628,1.628,0,0,0,.6.3c.9.3,1.4.8,1.3,1.4Z" fill="#fff"/>
  <path id="Path_1523" data-name="Path 1523" d="M130.2,39a3.778,3.778,0,0,0,3.8-3.7V4.7A3.778,3.778,0,0,0,130.2,1H4.7A3.757,3.757,0,0,0,1,4.7H1V35.2a3.757,3.757,0,0,0,3.7,3.7H130.2Zm0,1H4.7A4.7,4.7,0,0,1,0,35.3V4.7A4.7,4.7,0,0,1,4.7,0H130.2A4.781,4.781,0,0,1,135,4.7V35.2A4.8,4.8,0,0,1,130.2,40Z" fill="#a6a6a6"/>
</svg>
