<svg id="Group_2341" data-name="Group 2341" xmlns="http://www.w3.org/2000/svg" xmlns:xlink="http://www.w3.org/1999/xlink" width="135" height="40" viewBox="0 0 135 40">
  <defs>
    <linearGradient id="linear-gradient" x1="-33.117" y1="24.89" x2="-33.117" y2="24.85" gradientUnits="objectBoundingBox">
      <stop offset="0.039" stop-color="#00c3ff"/>
      <stop offset="0.977" stop-color="#00e1ff"/>
    </linearGradient>
    <linearGradient id="linear-gradient-2" x1="-43.108" y1="66.342" x2="-43.342" y2="66.342" gradientUnits="objectBoundingBox">
      <stop offset="0" stop-color="#fdde31"/>
      <stop offset="0.4" stop-color="#fabc31"/>
      <stop offset="0.77" stop-color="#f8a431"/>
      <stop offset="1" stop-color="#f79b31"/>
    </linearGradient>
    <linearGradient id="linear-gradient-3" x1="-26.161" y1="45.676" x2="-26.243" y2="45.538" gradientUnits="objectBoundingBox">
      <stop offset="0" stop-color="#ff3a44"/>
      <stop offset="1" stop-color="#c4206d"/>
    </linearGradient>
  </defs>
  <g id="Group_2340" data-name="Group 2340" transform="translate(135)">
    <path id="Path_1513" data-name="Path 1513" d="M-130,0H-5A4.951,4.951,0,0,1,0,5V35a4.951,4.951,0,0,1-5,5H-130a4.951,4.951,0,0,1-5-5V5A4.951,4.951,0,0,1-130,0Z"/>
    <path id="Path_1514" data-name="Path 1514" d="M-66.9,21.8a4.247,4.247,0,0,0-4.2,4.3,4.125,4.125,0,0,0,4.3,4.2,4.225,4.225,0,0,0,4.2-4.2,4.234,4.234,0,0,0-1.2-3,3.7,3.7,0,0,0-3.1-1.3Zm0,6.8a2.418,2.418,0,0,1-2.5-1.5,2.577,2.577,0,0,1,.4-2.9,2.443,2.443,0,0,1,2.8-.6A2.5,2.5,0,0,1-64.6,26a2.41,2.41,0,0,1-.7,1.8A1.816,1.816,0,0,1-66.9,28.6Zm-9.3-6.8a4.185,4.185,0,0,0-4.2,4.3,4.225,4.225,0,0,0,4.2,4.2A4.225,4.225,0,0,0-72,26.1a4.234,4.234,0,0,0-1.2-3,3.629,3.629,0,0,0-3-1.3Zm0,6.8a2.418,2.418,0,0,1-2.5-1.5,2.577,2.577,0,0,1,.4-2.9,2.443,2.443,0,0,1,2.8-.6A2.5,2.5,0,0,1-73.9,26a2.41,2.41,0,0,1-.7,1.8,1.816,1.816,0,0,1-1.6.8Zm-11.1-5.5v1.8H-83a4,4,0,0,1-1,2.3,4.224,4.224,0,0,1-3.3,1.3A4.738,4.738,0,0,1-92,23.6a4.828,4.828,0,0,1,4.7-4.7A4.6,4.6,0,0,1-84,20.2l1.3-1.3A6.362,6.362,0,0,0-87.2,17a6.462,6.462,0,0,0-5.9,3.2,6.872,6.872,0,0,0,0,6.8,6.462,6.462,0,0,0,5.9,3.2,6.1,6.1,0,0,0,4.6-1.8A5.973,5.973,0,0,0-81,24.2a3.75,3.75,0,0,0-.1-1.1ZM-42,24.5a3.843,3.843,0,0,0-3.6-2.7A3.847,3.847,0,0,0-48.5,23a3.767,3.767,0,0,0-1.1,3,4.234,4.234,0,0,0,1.2,3,4.234,4.234,0,0,0,3,1.2,4.369,4.369,0,0,0,3.6-1.9l-1.4-1a2.438,2.438,0,0,1-2.1,1.2,2.332,2.332,0,0,1-2.1-1.3l5.7-2.3-.3-.4Zm-5.8,1.4a2.716,2.716,0,0,1,.6-1.7,2.088,2.088,0,0,1,1.6-.8,1.7,1.7,0,0,1,1.6.9l-3.8,1.6ZM-52.3,30h1.9V17.5h-1.9V30Zm-3.1-7.3h0a3.255,3.255,0,0,0-2.3-1,4.272,4.272,0,0,0-4.1,4.2,4.363,4.363,0,0,0,4.1,4.3,2.574,2.574,0,0,0,2.2-1h.1v.6a2.213,2.213,0,0,1-2.3,2.5,2.388,2.388,0,0,1-2.2-1.5l-1.6.7A4.06,4.06,0,0,0-57.7,34c2.2,0,4-1.3,4-4.4V22h-1.7v.7Zm-2.2,5.9A2.616,2.616,0,0,1-60,26a2.543,2.543,0,0,1,2.4-2.6,2.289,2.289,0,0,1,1.7.8,2.333,2.333,0,0,1,.6,1.8,2.465,2.465,0,0,1-.6,1.8A2.136,2.136,0,0,1-57.6,28.6Zm24.4-11.1h-4.5V30h1.9V25.3h2.6a3.921,3.921,0,0,0,3.6-1.9,3.633,3.633,0,0,0,0-4,3.729,3.729,0,0,0-3.6-1.9Zm0,6h-2.6V19.2h2.7a2.2,2.2,0,0,1,2.2,2.1,2.3,2.3,0,0,1-2.3,2.2Zm11.5-1.8A3.454,3.454,0,0,0-25,23.6l1.7.7a1.682,1.682,0,0,1,1.7-.9,1.479,1.479,0,0,1,1.3.4,1.855,1.855,0,0,1,.7,1.2v.1a4.486,4.486,0,0,0-1.9-.5c-1.8,0-3.6,1-3.6,2.8a2.61,2.61,0,0,0,1,2,2.7,2.7,0,0,0,2.1.7,2.526,2.526,0,0,0,2.4-1.2h.1v1h1.8V25.1c-.1-2.1-1.8-3.4-4-3.4Zm-.2,6.9c-.6,0-1.4-.3-1.4-1.1,0-1,1.1-1.3,2-1.3a3.287,3.287,0,0,1,1.7.4,2.459,2.459,0,0,1-2.3,2ZM-11.2,22l-2.1,5.4h-.1L-15.6,22h-2l3.3,7.6-1.9,4.2h1.9L-9.2,22Zm-16.9,8h1.9V17.5h-1.9V30Z" fill="#fff"/>
    <path id="Path_1515" data-name="Path 1515" d="M-124.6,7.6A1.792,1.792,0,0,0-125,9V31a1.872,1.872,0,0,0,.5,1.4l.1.1L-112,20.2v-.3L-124.6,7.6Z" fill="url(#linear-gradient)"/>
    <path id="Path_1516" data-name="Path 1516" d="M-108,24.3l-4.1-4.1v-.3l4.1-4.1h.1l4.9,2.8c1.4.8,1.4,2.1,0,2.9l-5,2.8Z" fill="url(#linear-gradient-2)"/>
    <path id="Path_1517" data-name="Path 1517" d="M-107.9,24.2l-4.2-4.2-12.5,12.4a1.807,1.807,0,0,0,2.1.1l14.6-8.3" fill="url(#linear-gradient-3)"/>
    <path id="Path_1518" data-name="Path 1518" d="M-107.9,15.8l-14.6-8.3a1.662,1.662,0,0,0-2.1.1l12.5,12.5C-112.1,20-107.9,15.8-107.9,15.8Z" fill="#00f076"/>
    <path id="Path_1519" data-name="Path 1519" d="M-93.7,13V7h1.8a3.5,3.5,0,0,1,2.2.8,2.651,2.651,0,0,1,.8,2.2,3.5,3.5,0,0,1-.8,2.2,2.651,2.651,0,0,1-2.2.8Zm.8-.7h1.1a2.716,2.716,0,0,0,1.7-.6,2.523,2.523,0,0,0,.6-1.7,1.909,1.909,0,0,0-.6-1.6,1.909,1.909,0,0,0-1.6-.6H-93l.1,4.5Zm5.1.7V7h.8v6Zm3.9.1a2.836,2.836,0,0,1-1.3-.4,1.991,1.991,0,0,1-.8-1.2l.7-.3a2.177,2.177,0,0,0,.5.8,1.4,1.4,0,0,0,.9.3A1.613,1.613,0,0,0-83,12a1.012,1.012,0,0,0,.4-.7.909.909,0,0,0-.4-.8,5.359,5.359,0,0,0-1.1-.5,2.4,2.4,0,0,1-1.2-.7,1.284,1.284,0,0,1-.4-1,1.606,1.606,0,0,1,.5-1.1A1.922,1.922,0,0,1-84,6.9a1.746,1.746,0,0,1,1.2.4,1.555,1.555,0,0,1,.6.8l-.7.3a1,1,0,0,0-.4-.5,1.36,1.36,0,0,0-1.5,0,.6.6,0,0,0-.3.6.864.864,0,0,0,.3.6,3.552,3.552,0,0,0,.9.4c.2.1.5.2.7.3a2.092,2.092,0,0,1,.6.4,1.024,1.024,0,0,1,.5.6,1.884,1.884,0,0,1,.2.8,2.354,2.354,0,0,1-.2.8,1.205,1.205,0,0,1-.5.5,4.875,4.875,0,0,1-.7.3,1.486,1.486,0,0,0-.6-.1ZM-80,13h-.8V7h2a1.9,1.9,0,0,1,1.3.5,1.612,1.612,0,0,1,.6,1.3,1.76,1.76,0,0,1-.6,1.3,2.106,2.106,0,0,1-1.3.5H-80Zm0-3.2h1.3a1.136,1.136,0,0,0,.8-.3.908.908,0,0,0,.3-.7.908.908,0,0,0-.3-.7,1.135,1.135,0,0,0-.8-.3H-80Zm9,2.4a3.139,3.139,0,0,1-4.4,0,3.139,3.139,0,0,1,0-4.4,3.1,3.1,0,0,1,2.2-.9,3.1,3.1,0,0,1,2.2.9A3.139,3.139,0,0,1-71,12.2Zm-3.8-.5a2.354,2.354,0,0,0,3.3,0,2.477,2.477,0,0,0,0-3.4,2.354,2.354,0,0,0-3.3,0A2.478,2.478,0,0,0-74.8,11.7Zm5.7,1.3V7h.9l2.9,4.7V7h.8v6h-.8l-3.1-4.9V13Zm6,0V7h.8v6Zm2.2,0V7h2.2a1.845,1.845,0,0,1,1.2.5A1.656,1.656,0,0,1-57,8.7a2.353,2.353,0,0,1-.2.8c-.1.3-.3.4-.6.5a1.275,1.275,0,0,1,.7.5,1.613,1.613,0,0,1,.3.9,1.425,1.425,0,0,1-.6,1.2,1.9,1.9,0,0,1-1.3.5l-2.2-.1Zm.8-3.4h1.4a.908.908,0,0,0,.7-.3.713.713,0,0,0,.3-.6.713.713,0,0,0-.3-.6.908.908,0,0,0-.7-.3h-1.5V9.6Zm0,2.7h1.6a.779.779,0,0,0,.7-.3.908.908,0,0,0,.3-.7.945.945,0,0,0-1-1H-60l-.1,2Zm4.3.7V7h.8v5.3h2.6V13Zm7.9-5.3h-2.7V9.6h2.5v.7h-2.4v1.9h2.7V13h-3.5V7h3.5Zm4.6,5.4a2.836,2.836,0,0,1-1.3-.4,1.991,1.991,0,0,1-.8-1.2l.7-.3a2.177,2.177,0,0,0,.5.8,1.4,1.4,0,0,0,.9.3,1.136,1.136,0,0,0,.8-.3c.2-.2.4-.4.3-.7a.909.909,0,0,0-.4-.8,5.36,5.36,0,0,0-1.1-.5,2.925,2.925,0,0,1-1.2-.7,1.284,1.284,0,0,1-.4-1,1.606,1.606,0,0,1,.5-1.1,2.106,2.106,0,0,1,1.3-.5,1.746,1.746,0,0,1,1.2.4,1.555,1.555,0,0,1,.6.8l-.7.3a1,1,0,0,0-.4-.5,1.36,1.36,0,0,0-1.5,0,.713.713,0,0,0-.3.6.864.864,0,0,0,.3.6,5.9,5.9,0,0,0,.8.4c.2.1.5.2.7.3a2.092,2.092,0,0,1,.6.4,1.205,1.205,0,0,1,.5.5,1.884,1.884,0,0,1,.2.8,1.884,1.884,0,0,1-.2.8,1.205,1.205,0,0,1-.5.5l-.6.3c0,.2-.2.2-.5.2Zm5.2,0a2.271,2.271,0,0,1-1.6-.6,2.239,2.239,0,0,1-.6-1.7V7h.8v3.8a1.5,1.5,0,0,0,.4,1.1,1.672,1.672,0,0,0,2.2.1,1.5,1.5,0,0,0,.4-1.1V7h.8v3.8a2.716,2.716,0,0,1-.6,1.7,2.465,2.465,0,0,1-1.8.6Zm3.5-.1V7h2a1.9,1.9,0,0,1,1.3.5,1.727,1.727,0,0,1,.2,2.4,1.7,1.7,0,0,1-1,.6l1.7,2.5h-.9L-33,10.6h-.9V13Zm.8-3.1h1.2a1.135,1.135,0,0,0,.8-.3,1.135,1.135,0,0,0,.3-.8.908.908,0,0,0-.3-.7,1.136,1.136,0,0,0-.8-.3h-1.3V9.9Z" fill="#fff" stroke="#fff" stroke-width="0.2"/>
  </g>
</svg>
