<svg id="amex-44x31" xmlns="http://www.w3.org/2000/svg" width="44" height="31.001" viewBox="0 0 44 31.001">
  <path id="Path_1157" data-name="Path 1157" d="M47,35.868A4.162,4.162,0,0,1,42.81,40H7.19A4.162,4.162,0,0,1,3,35.868V13.133A4.162,4.162,0,0,1,7.19,9H42.81A4.162,4.162,0,0,1,47,13.133Z" transform="translate(-3 -9)" fill="#106fcf"/>
  <path id="Path_1171" data-name="Path 1171" d="M23.033,20l-2.221,5.531L18.6,20H15.769v7.943L12.613,20h-2.39L7,28.244H8.908l.705-1.84H13.22l.717,1.84h3.642V22.121l2.416,6.123h1.643l2.471-6.017v6.017h1.81V20ZM10.295,24.624l1.078-2.882,1.12,2.882Zm29.162-.593,3.276-4.009H40.4l-2.1,2.556L36.28,20H29.07v8.246h6.973l2.2-2.729,2.144,2.751h2.323ZM35.09,26.514H30.875V24.883h4.034V23.321H30.875V21.776l4.45.014,1.779,2.24Z" transform="translate(-2.867 -8.633)" fill="#fff"/>
</svg>
