<svg id="mastercard-44x31" xmlns="http://www.w3.org/2000/svg" width="44" height="31" viewBox="0 0 44 31">
  <path id="Path_1157" data-name="Path 1157" d="M47,35.867A4.162,4.162,0,0,1,42.81,40H7.19A4.162,4.162,0,0,1,3,35.867V13.133A4.162,4.162,0,0,1,7.19,9H42.81A4.162,4.162,0,0,1,47,13.133Z" transform="translate(-3 -9)" fill="#262626"/>
  <g id="icons8-mastercard" transform="translate(6.2 6.2)">
    <path id="Path_1167" data-name="Path 1167" d="M17.4,20.3a9.269,9.269,0,0,1,3.1-6.918,9.3,9.3,0,1,0,0,13.836A9.269,9.269,0,0,1,17.4,20.3Z" transform="translate(-5 -11)" fill="#eb0b1a"/>
    <path id="Path_1168" data-name="Path 1168" d="M26.2,11A9.253,9.253,0,0,0,20,13.382a9.27,9.27,0,0,1,0,13.836A9.3,9.3,0,1,0,26.2,11Z" transform="translate(-3.9 -11)" fill="#f79e27"/>
    <g id="Group_1287" data-name="Group 1287" transform="translate(12.7 2.382)">
      <path id="Path_1169" data-name="Path 1169" d="M23.2,20.223a9.269,9.269,0,0,0-3.1-6.918,9.27,9.27,0,0,0,0,13.836A9.269,9.269,0,0,0,23.2,20.223Z" transform="translate(-17 -13.305)" fill="#fd5f1f"/>
    </g>
  </g>
</svg>
