<svg id="paypal-44x31" xmlns="http://www.w3.org/2000/svg" width="44" height="31" viewBox="0 0 44 31">
  <rect id="Rectangle_435" data-name="Rectangle 435" width="44" height="31" rx="4" fill="#e5e5e5"/>
  <g id="icons8-paypal" transform="translate(13.956 7.411)">
    <path id="Path_1344" data-name="Path 1344" d="M11.125,9.472h0a.437.437,0,0,1,.427-.344h6.022c.008,0,.015,0,.023,0A3.342,3.342,0,0,0,14.1,6H8.076a.44.44,0,0,0-.427.347h0L5.015,18.431H5.02A.4.4,0,0,0,5,18.519a.443.443,0,0,0,.447.443H9.057Z" transform="translate(-5.003 -6)" fill="#1565c0"/>
    <path id="Path_1345" data-name="Path 1345" d="M21.9,12.994a4.761,4.761,0,0,1-.1,1.288,4.988,4.988,0,0,1-5.2,4.074H14.672a.411.411,0,0,0-.393.241L13.5,22.2l-.136.639h0L12.8,25.425H12.8a.4.4,0,0,0-.017.087.447.447,0,0,0,.447.447h3.278l.006,0a.44.44,0,0,0,.422-.352l.008-.007.81-3.762a.432.432,0,0,1,.434-.359h1.867a5.006,5.006,0,0,0,5.222-4.068A3.387,3.387,0,0,0,21.9,12.994Z" transform="translate(-9.307 -9.868)" fill="#039be5"/>
    <path id="Path_1346" data-name="Path 1346" d="M17.705,13a.436.436,0,0,0-.427.344h0L16.125,18.6a.411.411,0,0,1,.393-.241h1.893a5.025,5.025,0,0,0,5.235-4.074,4.743,4.743,0,0,0,.1-1.288.189.189,0,0,0-.022,0Z" transform="translate(-11.154 -9.868)" fill="#283593"/>
  </g>
</svg>
