<svg id="visa-44x31" xmlns="http://www.w3.org/2000/svg" width="44" height="31" viewBox="0 0 44 31">
  <rect id="Rectangle_435" data-name="Rectangle 435" width="44" height="31" rx="4" fill="#fff"/>
  <path id="Rectangle_502" data-name="Rectangle 502" d="M4,0H40a4,4,0,0,1,4,4V5a0,0,0,0,1,0,0H0A0,0,0,0,1,0,5V4A4,4,0,0,1,4,0Z" fill="#0c5a9d"/>
  <path id="Rectangle_503" data-name="Rectangle 503" d="M4,0H40a4,4,0,0,1,4,4V5a0,0,0,0,1,0,0H0A0,0,0,0,1,0,5V4A4,4,0,0,1,4,0Z" transform="translate(44 31) rotate(180)" fill="#f7ab41"/>
  <g id="icons8-visa" transform="translate(-0.732 -8.999)">
    <path id="Path_1441" data-name="Path 1441" d="M15.186,19,12.56,26.832s-.667-3.313-.733-3.729c-1.495-3.411-3.7-3.221-3.7-3.221L10.726,30v0h3.161l4.371-11Zm2.5,11H20.56L22.3,19H19.389ZM38.008,19H34.987l-4.71,11h2.852l.588-1.571h3.6L37.619,30h2.613Zm-3.495,7.328,1.563-4.157.818,4.157Zm-8.144-4.122c0-.606.5-1.057,1.926-1.057a4.53,4.53,0,0,1,1.991.674l.466-2.309A8.765,8.765,0,0,0,28.061,19c-3.019,0-4.576,1.444-4.576,3.272,0,3.306,3.979,2.853,3.979,4.551,0,.291-.231.964-1.888.964a6.147,6.147,0,0,1-2.759-.609l-.5,2.216A6.746,6.746,0,0,0,25.439,30c2.059,0,4.915-1.54,4.915-3.752C30.354,23.586,26.369,23.394,26.369,22.206Z" fill="#0c5a9d"/>
    <path id="Path_1442" data-name="Path 1442" d="M12.212,24.945,11.246,20.2a1.774,1.774,0,0,0-1.573-1.029H5.233S10.894,20.84,12.212,24.945Z" fill="#ffc107"/>
  </g>
</svg>
